<?xml version="1.0" encoding="UTF-8" standalone="no"?>
<!-- Created with Inkscape (http://www.inkscape.org/) -->

<svg
   xmlns:dc="http://purl.org/dc/elements/1.1/"
   xmlns:cc="http://creativecommons.org/ns#"
   xmlns:rdf="http://www.w3.org/1999/02/22-rdf-syntax-ns#"
   xmlns:svg="http://www.w3.org/2000/svg"
   xmlns="http://www.w3.org/2000/svg"
   xmlns:sodipodi="http://sodipodi.sourceforge.net/DTD/sodipodi-0.dtd"
   xmlns:inkscape="http://www.inkscape.org/namespaces/inkscape"
   version="1.1"
   id="svg3767"
   width="652"
   height="207"
   viewBox="0 0 652 207"
   sodipodi:docname="SR-logo-svart123.svg"
   inkscape:version="0.92.4 (unknown)">
  <metadata
     id="metadata3773">
    <rdf:RDF>
      <cc:Work
         rdf:about="">
        <dc:format>image/svg+xml</dc:format>
        <dc:type
           rdf:resource="http://purl.org/dc/dcmitype/StillImage" />
        <dc:title></dc:title>
      </cc:Work>
    </rdf:RDF>
  </metadata>
  <defs
     id="defs3771" />
  <sodipodi:namedview
     pagecolor="#ffffff"
     bordercolor="#666666"
     borderopacity="1"
     objecttolerance="10"
     gridtolerance="10"
     guidetolerance="10"
     inkscape:pageopacity="0"
     inkscape:pageshadow="2"
     inkscape:window-width="965"
     inkscape:window-height="678"
     id="namedview3769"
     showgrid="false"
     inkscape:zoom="0.51840491"
     inkscape:cx="326"
     inkscape:cy="-222.42487"
     inkscape:window-x="2196"
     inkscape:window-y="853"
     inkscape:window-maximized="0"
     inkscape:current-layer="svg3767"
     inkscape:pagecheckerboard="true" />
  <g
     id="g3717">
    <path
       style="fill:#96979a"
       d="m 128.0368,151.55889 c -0.80834,-0.97399 -1.06058,-10.29785 -0.87245,-32.25 l 0.26464,-30.879896 20.30487,-0.27088 c 23.35533,-0.311576 25.88504,0.282567 29.24501,6.868653 1.6501,3.234455 1.95012,5.911773 1.95012,17.402223 0,11.42625 -0.30397,14.16802 -1.91684,17.28984 -3.14378,6.08498 -4.84142,6.6521 -21.58316,7.21016 l -15,0.5 -0.30321,6.46165 c -0.16677,3.55391 -0.78437,7.04141 -1.37245,7.75 -1.42488,1.71688 -9.27349,1.657 -10.71653,-0.0817 z M 164.3472,125.322 c 2.35693,-0.90444 2.35693,-24.88158 0,-25.786017 -2.05723,-0.789434 -20.77919,-0.789434 -22.83642,0 -1.32385,0.508007 -1.58179,2.614337 -1.58179,12.916667 0,8.91207 0.34501,12.44889 1.25,12.81406 1.80513,0.72839 21.29295,0.7749 23.16821,0.0553 z m -95.012679,10.22139 c -0.292436,-0.76207 -0.390813,-3.34957 -0.218615,-5.75 l 0.313088,-4.3644 18.14841,-0.5 c 16.021046,-0.44139 18.394756,-0.7233 20.249996,-2.40499 2.74322,-2.48659 2.79514,-7.90146 0.10159,-10.59501 -1.75209,-1.75209 -3.33333,-2 -12.756598,-2 -5.916131,0 -12.282879,-0.43773 -14.148329,-0.97273 -17.236338,-4.94332 -19.814455,-28.007834 -4.030742,-36.060083 3.578621,-1.825676 5.561462,-1.98873 21.16895,-1.740769 l 17.220479,0.273586 0.96616,2.75 c 0.62091,1.767307 0.6214,3.732693 10e-4,5.5 l -0.9648,2.75 -16.31147,0.5 c -14.663089,0.449472 -16.454652,0.696165 -17.728247,2.44113 -1.515677,2.076644 -1.857153,6.353467 -0.651456,8.159166 1.709544,2.56028 5.619757,3.400753 15.918946,3.421666 8.386527,0.01703 11.714137,0.437906 14.815737,1.873901 4.65574,2.155543 8.92424,6.417023 10.43638,10.419233 1.4881,3.93859 1.32521,12.13949 -0.31714,15.96702 -1.68271,3.92159 -7.11623,9.21706 -10.93434,10.65655 -1.62341,0.61218 -10.841064,1.06133 -21.78101,1.06133 -15.240438,0 -19.070736,-0.27219 -19.497989,-1.3856 z m 116.304769,0.76256 c -0.39067,-0.39066 -0.7096,-8.84779 -0.70875,-18.79363 0.002,-20.367901 0.71686,-23.185027 6.94095,-27.343463 3.17201,-2.119278 4.35065,-2.277996 15,-2.019933 l 11.5575,0.28007 v 5 5 l -8.70442,0.5 c -5.17187,0.297083 -9.23021,1.026266 -10,1.796756 -0.91737,0.9182 -1.44154,6.31872 -1.79558,18.49999 l -0.5,17.20325 -5.5397,0.29363 c -3.04684,0.1615 -5.85934,-0.026 -6.25,-0.41667 z m 37.7897,-0.31231 c -3.47932,-1.44147 -5.47453,-4.55955 -6.51333,-10.17895 -1.51716,-8.20706 -0.0117,-14.55826 4.41183,-18.61209 l 3.57213,-3.27361 h 15.04607 c 12.63869,0 15.14081,-0.2469 15.63822,-1.54313 0.32569,-0.84871 0.27589,-1.86121 -0.11065,-2.24999 -0.38655,-0.388784 -6.85464,-0.931876 -14.37354,-1.206876 l -13.67073,-0.5 v -5 -5 l 15.29349,-0.27628 c 18.17518,-0.328339 20.92297,0.493388 24.18539,7.232661 1.89622,3.917059 2.0447,5.791985 1.79421,22.657035 l -0.27309,18.38658 -21.5,0.19662 c -11.825,0.10814 -22.4,-0.17625 -23.5,-0.63197 z m 31.31487,-10.92907 c 0.84969,-0.53882 1.20348,-2.39076 1,-5.23469 l -0.31487,-4.40089 h -12.5 -12.5 l -0.31487,4.40089 c -0.20348,2.84393 0.15031,4.69587 1,5.23469 0.72318,0.45859 6.03987,0.83379 11.81487,0.83379 5.775,0 11.09169,-0.3752 11.81487,-0.83379 z m 20.65845,10.65549 c -0.27637,-0.72021 -0.38343,-15.48033 -0.2379,-32.80027 l 0.26458,-31.490796 h 6 6 l 0.5,19.443358 0.5,19.443358 10.5,-11.192897 10.5,-11.192897 7.75,-4.61e-4 c 5.52042,-3.28e-4 7.7571,0.359148 7.77468,1.249539 0.0136,0.6875 -4.3544,5.342691 -9.7066,10.34487 l -9.73127,9.094866 11.7066,12.86168 c 6.43862,7.07392 11.70659,13.44373 11.70659,14.15513 0,0.93313 -1.92472,1.29345 -6.90924,1.29345 h -6.90923 l -5.45996,-5.75 c -3.00298,-3.1625 -6.91544,-7.4375 -8.69436,-9.5 -1.77891,-2.0625 -3.78746,-3.75 -4.46344,-3.75 -0.67597,0 -2.76685,1.90588 -4.64641,4.23529 -2.55917,3.17171 -3.54292,5.49462 -3.91736,9.25 l -0.5,5.01471 -5.7621,0.30026 c -4.0522,0.21117 -5.91121,-0.0883 -6.26458,-1.00919 z m 58.52668,-17.27328 c 0,-19.081923 0.60937,-22.047611 5.44869,-26.517786 2.51848,-2.326359 3.53455,-2.523181 14.62888,-2.833749 l 11.92243,-0.333749 v 4.583749 4.583749 h -7.88922 c -12.18517,0 -12.04742,-0.228511 -12.35694,20.499996 l -0.25384,17 -5.75,0.2999 -5.75,0.29991 z m 37.11007,16.0867 c -3.7805,-2.09537 -5.0365,-5.46502 -5.0709,-13.60449 -0.0359,-8.48287 2.06984,-13.33055 6.52639,-15.02493 1.41055,-0.53629 8.57354,-0.97507 15.91775,-0.97507 14.61136,0 16.51669,-0.34429 16.51669,-2.98454 0,-3.285578 -2.43787,-3.948768 -15.5648,-4.234196 l -12.9352,-0.28126 v -4 -4 h 16.23289 16.23289 l 3.26711,3.266942 3.26711,3.266941 0.30829,19.983053 0.30828,19.98306 -21.30828,-0.0354 c -15.76169,-0.0262 -21.93039,-0.38024 -23.69822,-1.36007 z m 32.68993,-8.80449 c 1.84287,-1.84287 1.54921,-10.45202 -0.38179,-11.19301 -2.65843,-1.02014 -22.42361,-0.67447 -24.48395,0.42819 -2.63072,1.40792 -2.76569,9.38117 -0.18426,10.88472 2.53875,1.47869 23.55199,1.37811 25.05,-0.1199 z m 28.2964,8.93526 c -1.32198,-0.67939 -3.34698,-2.50576 -4.5,-4.05859 -1.91382,-2.57744 -2.0964,-4.1537 -2.0964,-18.09861 0,-22.885308 0.67055,-23.578056 22.8225,-23.578056 7.98266,0 15.22573,-0.273145 16.09571,-0.606989 1.25752,-0.482553 1.58179,-2.225097 1.58179,-8.5 v -7.893011 h 5.5 5.5 v 31.999996 32 l -21.25,-0.0147 c -14.87474,-0.0103 -21.97111,-0.38534 -23.6536,-1.25 z m 31.96934,-8.77044 c 1.75308,-0.93822 1.93426,-2.19946 1.93426,-13.46482 0,-11.26535 -0.18118,-12.526593 -1.93426,-13.464812 -1.06384,-0.569351 -7.1067,-1.035184 -13.42857,-1.035184 -14.96476,0 -14.63717,-0.324516 -14.63717,14.499996 0,14.82452 -0.32759,14.5 14.63717,14.5 6.32187,0 12.36473,-0.46583 13.42857,-1.03518 z m 27.24256,9.02558 c -4.14034,-1.66774 -5.48859,-5.30157 -6.05027,-16.30685 -0.79649,-15.60612 0.29411,-23.389529 3.76341,-26.858835 l 2.82471,-2.824711 h 18.52116 c 17.83556,0 18.61924,0.08437 21.17081,2.279132 1.69816,1.460696 2.9594,3.884622 3.51221,6.75 1.28364,6.653384 1.14059,17.379944 -0.25033,18.770864 -0.8459,0.8459 -6.6,1.2 -19.5,1.2 h -18.3 v 3.52475 c 0,4.81677 2.17261,5.47525 18.0651,5.47525 h 12.9349 v 4.5 4.5 l -17.25,-0.0634 c -9.4875,-0.0349 -18.23627,-0.46065 -19.4417,-0.94621 z m 33.52041,-30.94626 c 0.23089,-2.42738 -0.198,-3.841 -1.44113,-4.749996 -2.36359,-1.728298 -23.47452,-1.807201 -25.18758,-0.09414 -0.66,0.66 -1.2,2.922696 -1.2,5.028216 v 3.82822 l 13.75,-0.27822 13.75,-0.27822 z m 25.42761,30.94368 c -1.23402,-0.50528 -3.14924,-2.39675 -4.25604,-4.20326 -1.8928,-3.08941 -1.99716,-4.74022 -1.75632,-27.78456 l 0.25604,-24.499996 3.81979,-0.314526 c 4.9285,-0.405819 6.50219,0.999866 6.87652,6.14241 l 0.30369,4.172116 8.5,0.5 8.5,0.5 v 4 4 l -8.5,0.5 -8.5,0.5 -0.28114,12.918856 c -0.1798,8.26212 0.10707,13.30857 0.79585,14 0.59233,0.59463 4.76885,1.30614 9.28113,1.58114 l 8.20416,0.5 v 4 4 l -10.5,0.20326 c -5.775,0.11179 -11.50966,-0.21015 -12.74368,-0.71544 z m 36.0575,-31.88179 c -4.01648,-2.51994 -5.31382,-4.938293 -5.31382,-9.905426 0,-12.846586 17.32032,-15.059836 21.9634,-2.806558 3.4501,9.104948 -8.20966,18.007194 -16.64958,12.711984 z M 239.14578,83.36829 c -2.88729,-2.022341 -5.22616,-6.599387 -5.18135,-10.139636 0.0474,-3.748987 1.97548,-7.008854 5.53199,-9.353315 7.79737,-5.140065 17.43257,0.720895 17.43257,10.603995 0,2.81726 -0.77546,4.425118 -3.4,7.04966 -2.83107,2.831066 -4.1325,3.4 -7.77749,3.4 -2.40763,0 -5.3802,-0.702317 -6.60572,-1.560704 z m 8.60276,-9.689296 c -0.20974,-1.476816 -1.00682,-2.25 -2.31955,-2.25 -1.31273,0 -2.10981,0.773184 -2.31955,2.25 -0.26213,1.84568 0.15469,2.25 2.31955,2.25 2.16486,0 2.58168,-0.40432 2.31955,-2.25 z m 139.1615,7.5 c -4.23549,-3.818251 -4.88465,-8.653679 -1.77881,-13.25 6.68486,-9.892916 21.89897,-3.002066 18.68457,8.462711 -2.10253,7.499088 -11.0782,10.040773 -16.90576,4.787289 z m 9.9659,-5.686078 c 0.88467,-1.06596 0.90716,-1.968009 0.0873,-3.5 -2.12876,-3.977619 -7.91825,-1.424642 -6.54944,2.88809 0.7642,2.407792 4.66517,2.777178 6.46218,0.61191 z m 187.45305,-3.963922 c -2.62454,-2.624542 -3.4,-4.2324 -3.4,-7.04966 0,-13.402509 17.52302,-16.749073 21.74143,-4.152198 2.37482,7.091618 -3.27066,14.601858 -10.97629,14.601858 -3.17604,0 -4.64177,-0.67663 -7.36514,-3.4 z"
       id="path3721"
       inkscape:connector-curvature="0" />
    <path
       style="fill:#161616"
       d="m 129.16454,120.17899 0.26445,-30.749996 16,-0.301084 c 20.76987,-0.390842 23.99969,0.100774 28.18972,4.290808 l 3.31028,3.310276 V 111.9247 c 0,22.61822 -0.56874,23.2027 -23.15686,23.79782 -16.67934,0.43945 -15.8033,-0.11156 -15.82949,9.95647 l -0.0137,5.25 h -4.51445 -4.51445 z m 37.7892,4.1849 c 0.53639,-1.4108 0.97525,-6.78151 0.97525,-11.9349 0,-5.15339 -0.43886,-10.52409 -0.97525,-11.9349 l -0.97525,-2.565096 h -12.96573 c -9.28488,0 -13.18985,0.354863 -13.75518,1.25 -1.26503,2.003036 -1.61667,21.955996 -0.44059,24.999996 l 1.0625,2.75 h 13.0495 13.0495 z m -95.358079,10.89843 c -0.366667,-0.36666 -0.666667,-2.35373 -0.666667,-4.41571 v -3.74904 l 16.929455,-0.33429 c 15.345001,-0.303 17.193431,-0.53103 19.749991,-2.43644 5.60001,-4.17368 5.62077,-11.02466 0.0437,-14.42513 -2.7001,-1.64632 -5.05403,-1.96585 -14.505275,-1.96898 -12.478158,-0.004 -16.134124,-1.0166 -20.331816,-5.63058 -7.207331,-7.922093 -6.076755,-20.324884 2.413345,-26.475081 l 4.000677,-2.898075 h 17.849961 17.849958 v 4 4 l -13.25,0.0056 c -16.037821,0.0067 -20.162587,0.957818 -22.32977,5.148689 -1.8266,3.532256 -1.262055,7.003905 1.60521,9.87117 1.705522,1.705522 3.371168,1.977815 12.224564,1.998421 15.661716,0.03645 20.587896,1.750103 25.416036,8.841386 6.70138,9.84259 1.24617,24.84483 -10.18859,28.01938 -4.25355,1.18088 -35.695346,1.56415 -36.810779,0.44871 z m 114.721999,-0.76285 c -0.32501,-0.84697 -0.41966,-9.08431 -0.21032,-18.30521 0.4476,-19.716106 1.2853,-22.255777 8.37544,-25.392086 3.50816,-1.551825 6.20753,-1.892316 13.17901,-1.662364 l 8.7672,0.289184 v 4 4 l -8.12986,0.288501 c -11.49917,0.408067 -11.25769,-0.02434 -11.59506,20.762525 l -0.27508,16.94897 -4.7602,0.30521 c -3.56426,0.22853 -4.90866,-0.0817 -5.35113,-1.23473 z m 38.61133,0.13395 c -4.55132,-1.56621 -6.99689,-6.35623 -6.99689,-13.70443 0,-7.00858 2.43651,-11.97028 6.99689,-14.24845 2.84226,-1.41987 6.18983,-1.74873 17.81336,-1.75 l 14.31336,-0.002 -0.31336,-3.25 -0.31336,-3.249996 -13.5,-0.5 -13.5,-0.5 v -4 -4 h 14.67937 c 13.34072,0 14.93658,0.191175 17.5,2.096399 5.00611,3.720727 5.33511,5.369963 5.06763,25.403597 l -0.247,18.5 -19,0.20443 c -12.72016,0.13686 -20.15681,-0.19366 -22.5,-1 z m 32.26934,-11.0081 c 0.51321,-1.54202 0.64216,-4.35452 0.28657,-6.25 l -0.64654,-3.44633 h -13.25468 c -8.97587,0 -13.64207,0.38738 -14.45469,1.2 -1.56785,1.56785 -1.54853,9.05147 0.0274,10.62744 0.87409,0.87409 4.95272,1.14757 14.16812,0.95 l 12.94067,-0.27744 0.93311,-2.80367 z m 20.2076,11.10418 c -0.27884,-0.72665 -0.38772,-15.04153 -0.24196,-31.81084 l 0.26502,-30.489666 h 4 4 l 0.55474,19.5 c 0.30511,10.724996 0.64261,19.612496 0.75,19.749996 0.79741,1.02097 3.39855,-0.19298 5.13,-2.39417 1.14395,-1.45429 5.86243,-6.62929 10.48553,-11.499994 l 8.40562,-8.855832 h 5.52804 c 3.04042,0 5.75203,0.362431 6.0258,0.805402 0.27377,0.442971 -3.74914,4.748548 -8.9398,9.567948 -7.69795,7.147356 -9.2591,9.072596 -8.46939,10.444596 0.5325,0.92513 5.6852,6.82275 11.45043,13.10583 5.76524,6.28309 10.25247,11.79559 9.97163,12.25 -0.28085,0.45442 -2.70004,0.82622 -5.37598,0.82622 h -4.86535 l -9.24999,-10 c -5.08749,-5.5 -9.80462,-10 -10.48251,-10 -0.67789,0 -3.11079,2.24337 -5.40644,4.98528 -3.1054,3.70905 -4.34704,6.20504 -4.85019,9.75 -0.65913,4.64391 -0.77139,4.7726 -4.42724,5.07556 -2.42485,0.20095 -3.93021,-0.15624 -4.25796,-1.01033 z m 308.82209,-33.30361 c -3.3992,-2.380893 -4.69588,-7.611334 -2.93294,-11.83065 0.80553,-1.927895 2.37311,-3.991484 3.48351,-4.585755 3.50832,-1.877595 8.80516,-1.28152 11.84464,1.332925 2.32979,2.004003 2.80576,3.206177 2.80576,7.086584 0,3.880407 -0.47597,5.082581 -2.80576,7.086586 -3.26899,2.81185 -9.07192,3.23803 -12.39521,0.91031 z M 241.25773,82.471233 c -3.90133,-1.697051 -5.32874,-4.21171 -5.32874,-9.387604 0,-10.486345 15.69069,-12.681935 18.99873,-2.658482 1.59347,4.828255 -0.78355,10.098165 -5.43062,12.039836 -4.19366,1.752225 -4.22552,1.752249 -8.23937,0.0062 z m 7.66048,-6.029253 c 1.70781,-2.057782 0.45795,-6.236284 -2.10908,-7.051027 -1.45387,-0.461441 -2.76,-0.02655 -4.1775,1.390958 -1.7574,1.757402 -1.89104,2.438175 -0.90391,4.604691 1.31924,2.895411 5.19169,3.463787 7.19049,1.055378 z m 339.22335,-3.996898 c -3.80269,-1.678442 -6.59282,-7.152851 -5.62036,-11.027457 0.81051,-3.229315 5.89388,-7.488631 8.93746,-7.488631 5.76384,0 10.47033,4.690414 10.47033,10.434564 0,3.112839 -4.61266,8.309751 -8,9.013297 -1.375,0.285585 -3.97934,-0.133712 -5.78743,-0.931773 z"
       id="path3719"
       inkscape:connector-curvature="0" />
  </g>
</svg>
